<?xml version="1.0" encoding="UTF-8" standalone="no"?>
<!-- Created with Inkscape (http://www.inkscape.org/) -->

<svg
   width="210mm"
   height="297mm"
   viewBox="0 0 210 297"
   version="1.1"
   id="svg1"
   xml:space="preserve"
   sodipodi:docname="bunny_steve.svg"
   inkscape:version="1.4.3 (0d15f75, 2025-12-25)"
   xmlns:inkscape="http://www.inkscape.org/namespaces/inkscape"
   xmlns:sodipodi="http://sodipodi.sourceforge.net/DTD/sodipodi-0.dtd"
   xmlns="http://www.w3.org/2000/svg"
   xmlns:svg="http://www.w3.org/2000/svg"><sodipodi:namedview
     id="namedview1"
     pagecolor="#505050"
     bordercolor="#ffffff"
     borderopacity="1"
     inkscape:showpageshadow="0"
     inkscape:pageopacity="0"
     inkscape:pagecheckerboard="1"
     inkscape:deskcolor="#505050"
     inkscape:document-units="mm"
     inkscape:zoom="1.4485269"
     inkscape:cx="465.99064"
     inkscape:cy="225.4014"
     inkscape:window-width="1920"
     inkscape:window-height="1094"
     inkscape:window-x="-11"
     inkscape:window-y="-11"
     inkscape:window-maximized="1"
     inkscape:current-layer="g1" /><defs
     id="defs1" /><g
     inkscape:label="Layer 1"
     inkscape:groupmode="layer"
     id="layer1"><g
       id="g1"
       transform="matrix(0.25701446,0,0,0.25701446,60.406046,-1.4097103)"><path
         style="fill:#000000"
         d="m 38.234132,358.23646 c -2.412459,-1.27449 -3.534752,-3.79844 -3.338223,-7.50742 0.111241,-2.09939 0.250017,-2.65141 1.079971,-4.29593 1.043205,-2.06707 2.784083,-3.80155 3.815572,-3.80155 0.35537,0 0.897392,-0.3149 1.252384,-0.7276 0.528711,-0.61466 0.832782,-0.7276 1.958935,-0.7276 1.194958,0 1.447402,0.10965 2.436524,1.05833 1.774905,1.70234 2.434114,3.44791 2.569656,6.8044 0.109656,2.71548 0.08106,2.90609 -0.674777,4.49791 -0.434107,0.91425 -1.153127,2.15567 -1.597823,2.75871 -1.615941,2.19135 -5.248905,3.13116 -7.502219,1.94075 z m 3.418504,-4.10772 c 0.908079,-0.63604 1.917698,-2.57855 2.088127,-4.01755 0.180268,-1.52208 -0.501902,-4.24432 -1.123348,-4.48279 -0.929728,-0.35677 -3.549059,3.67286 -3.546261,5.45563 0.0021,1.36023 0.478007,2.86887 1.001128,3.17384 0.62734,0.36572 0.906415,0.34292 1.580354,-0.12913 z m 45.608961,3.07322 c -4.047919,-1.29428 -6.82564,-4.15436 -6.82564,-7.02803 0,-2.73697 3.839787,-8.11077 6.73523,-9.42598 2.670183,-1.21288 5.700186,-0.0567 5.700186,2.17511 0,1.48024 -1.005851,2.19877 -2.754281,1.96753 l -1.299073,-0.17181 -1.374872,1.47731 c -0.75618,0.81252 -1.688871,2.05423 -2.072646,2.75936 -0.694954,1.27685 -0.69571,1.28466 -0.187189,1.93114 0.280822,0.35701 1.222018,1.02829 2.091546,1.49175 1.359502,0.72461 1.809785,0.83295 3.214502,0.77345 1.50279,-0.0636 1.684673,-0.01 2.27236,0.67317 0.781196,0.90781 0.811981,1.74427 0.09762,2.65243 -0.986507,1.25414 -3.089937,1.52641 -5.597743,0.72457 z m 15.256113,0.26885 c 0,-2.8751 -4.463685,-2.971 -3.191015,-4.91334 0.66493,-1.01481 2.349465,-0.99607 3.277755,0.0365 0.57613,0.64083 0.71693,0.6685 2.95484,0.58078 1.29244,-0.0507 2.43415,-0.17652 2.53713,-0.27968 0.35298,-0.3536 -1.50309,-1.66578 -4.98319,-3.52295 -2.53419,-1.35239 -3.646265,-2.10151 -4.084035,-2.75111 -1.61321,-2.39384 -0.006,-4.25366 5.880715,-6.80343 1.45521,-0.63035 3.03279,-1.14803 3.50573,-1.15041 0.96354,-0.005 1.81657,0.68914 2.06532,1.68024 0.2096,0.83509 -0.50052,2.19482 -1.26867,2.42925 -0.57785,0.17636 -2.05288,0.80365 -3.83936,1.6328 -0.47294,0.2195 -0.85989,0.48842 -0.85989,0.59759 0,0.10917 0.52559,0.39921 1.16797,0.64454 2.65121,1.01251 6.46888,4.34619 7.6616,6.6903 1.40498,2.76127 -0.49087,4.39393 -5.91916,5.09744 -2.20295,0.2855 -4.90574,1.64149 -4.90574,0.0315 z M -2.6841001,355.3151 c -3.3005696,-1.70365 -6.6796189,-5.82126 -6.8259532,-8.31791 -0.1122239,-1.91468 0.00136,-2.37539 1.0041216,-4.07281 1.0971086,-1.85712 3.2176661,-3.60474 4.7147846,-3.88561 2.81448453,-0.528 4.75002553,2.27431 2.7393945,3.96615 -0.521322,0.43866 -1.132846,0.68498 -1.7005883,0.68498 -0.9590123,0 -1.63363,0.63378 -2.2445544,2.10868 -0.3032805,0.73218 -0.2680012,0.90783 0.3786005,1.88491 0.8299237,1.2541 2.7684992,3.17056 3.72490223,3.68241 0.570361,0.30525 0.795652,0.29276 1.594952,-0.0884 1.29111697,-0.61569 2.14854497,-0.5551 2.90922297,0.20558 1.3110103,1.31101 0.6625053,2.96782 -1.568213,4.0065 -1.76880297,0.8236 -2.87193097,0.78288 -4.7266695,-0.17448 z m 66.9129971,0.28421 c -1.123832,-0.46373 -1.496524,-1.4724 -1.699687,-4.60014 -0.22704,-3.49532 -0.663004,-4.92358 -1.650593,-5.40752 -1.589601,-0.77894 -2.287541,0.26315 -2.287541,3.4155 0,2.39522 -0.435763,3.55557 -1.485105,3.95453 -0.987067,0.37528 -1.321241,0.31735 -2.116794,-0.36695 -0.603757,-0.51933 -0.841315,-1.1539 -1.460996,-3.90261 -0.407003,-1.80534 -0.744041,-3.49995 -0.748972,-3.7658 -0.01432,-0.77232 1.422812,-2.03017 2.319535,-2.03017 0.429938,0 0.937147,-0.1873 1.127131,-0.41622 1.05703,-1.27364 3.839521,-1.79496 6.152403,-1.15271 1.344142,0.37325 2.942249,2.06414 3.591869,3.80041 0.579272,1.54824 1.042474,4.56364 1.149725,7.48459 0.05941,1.61812 -0.01091,1.99051 -0.459004,2.43072 -0.653341,0.64183 -1.664328,0.87312 -2.431971,0.55637 z m -52.719189,-0.38315 c -1.04921,-0.45396 -1.164067,-0.7906 -1.164122,-3.41196 -4.5e-5,-2.12439 -0.6236573,-6.21569 -0.9991553,-6.55511 -0.105284,-0.0952 -1.1129,-0.3737 -2.239147,-0.61895 -1.466802,-0.31942 -2.161107,-0.6078 -2.447396,-1.01654 -0.414462,-0.59173 -0.520313,-1.68271 -0.235319,-2.42539 0.273413,-0.7125 1.597136,-1.24345 2.621142,-1.05135 0.838381,0.15728 0.91867,0.11759 0.91867,-0.45416 0,-0.34458 -0.123324,-1.04244 -0.274054,-1.5508 -0.4031,-1.35952 -1.576549,-8.95123 -1.577345,-10.20474 -8.74e-4,-1.37797 0.821115,-2.22893 2.153061,-2.22893 1.478179,0 2.0306383,0.80979 2.3592763,3.45819 0.152219,1.2267 0.62781,4.22209 1.05687,6.65643 0.42906,2.43435 0.780109,4.47967 0.780109,4.54517 0,0.4447 0.989108,0.95063 1.858533,0.95063 2.455304,0 3.685046,1.84607 2.355597,3.53619 -0.43078,0.54765 -0.777637,0.69714 -1.61753,0.69714 -1.062941,0 -1.068221,0.005 -0.907808,0.8599 0.08874,0.47294 0.237401,2.3526 0.33035,4.17703 0.164989,3.23844 0.154027,3.33366 -0.462051,4.01351 -0.812419,0.89653 -1.49001,1.06493 -2.509681,0.62374 z m 61.141853,-0.006 c -0.303366,-0.21249 -0.684284,-0.7185 -0.846484,-1.12448 -0.445374,-1.11474 -1.100935,-6.00054 -1.100935,-8.2051 0,-1.71738 0.07741,-2.02722 0.649432,-2.59923 1.032414,-1.03242 2.787491,-0.68814 3.271092,0.64166 0.294012,0.80846 1.216244,8.15171 1.21291,9.65777 -0.0038,1.70167 -1.783405,2.61181 -3.186015,1.62938 z m -46.89869,-0.25076 c -0.55107,1.10214 -2.169215,-1.81094 -3.251812,-4.12575 -0.754941,-1.61422 -0.931822,-2.31231 -0.948232,-3.74237 -0.02362,-2.05842 0.3307,-2.60879 2.119251,-3.29184 0.946264,-0.36139 1.646709,-0.4047 3.976577,-0.24589 2.471648,0.16846 2.90628,0.27103 3.449229,0.81398 0.812832,0.81283 0.805573,1.98925 -0.01817,2.94563 -0.572063,0.66418 -0.794988,0.737 -2.116667,0.69147 -0.812494,-0.028 -1.477263,-0.014 -1.477263,0.0311 0,0.0451 0.358967,1.17128 0.797703,2.50262 0.88316,2.67994 0.847095,3.44327 -0.201659,4.26822 -0.774016,0.60884 -1.785812,-0.93346 -2.328952,0.15282 z m -76.74956,-0.6067 c -1.237481,-0.28934 -3.912666,-1.78694 -5.101705,-2.85599 -2.218341,-1.99448 -2.460413,-4.20682 -0.817308,-7.46953 1.148576,-2.28072 3.819701,-5.02764 5.840848,-6.00658 2.737554,-1.32592 5.193783,-0.98908 7.310635,1.00256 2.334547,2.19647 2.214169,4.27578 -0.40995,7.08118 -1.502358,1.60614 -3.348262,2.34806 -5.842004,2.34806 -0.977768,0 -2.174006,-0.11364 -2.658308,-0.25254 -1.308821,-0.37537 -0.650854,0.28659 1.1707,1.17779 1.4871,0.72757 2.098854,0.75993 4.875749,0.25789 2.041595,-0.3691 3.268456,2.12161 1.748438,3.5496 -1.120725,1.05286 -4.141628,1.62946 -6.117095,1.16756 z m 3.004552,-10.74087 c 0.355082,-0.17534 0.815248,-0.57787 1.022589,-0.89451 0.342409,-0.5229 0.323108,-0.60453 -0.210449,-0.89008 -0.810287,-0.43366 -2.325663,0.0468 -3.444756,1.0922 -0.707282,0.6607 -0.797359,0.85736 -0.487476,1.06427 0.443248,0.29596 2.18906,0.0879 3.120092,-0.37188 z m 12.414195,10.19838 c 0,1.49954 -1.792705,-3.75836 -1.792705,-5.86534 0,-2.21044 -1.031036,-7.15633 -2.53488,-12.15985 -1.077981,-3.58661 -1.104032,-4.09068 -0.255271,-4.93944 0.845525,-0.84553 2.075599,-0.85887 2.902974,-0.0315 1.071478,1.07148 3.082694,8.15885 3.728911,13.1404 0.235966,1.81901 0.614549,4.20026 0.841296,5.29167 0.711615,3.42523 0.721705,3.85568 0.104841,4.47254 -0.705209,0.70521 -2.995166,-0.79403 -2.995166,0.0915 z m 12.939175,-0.66348 c 0.593659,0 -1.584775,-1.60846 -2.422917,-2.84427 -0.838141,-1.23582 -1.71336,-2.51227 -1.94493,-2.83656 -0.297011,-0.41593 -0.432653,-1.25866 -0.460482,-2.86084 l -0.03945,-2.27121 1.094707,-1.02355 c 1.297649,-1.2133 2.766838,-1.70175 5.152898,-1.71311 1.565411,-0.007 1.889946,0.0874 3.081429,0.90044 1.838864,1.25483 2.709508,2.66406 2.709508,4.38563 0,1.16782 -0.117151,1.47232 -0.859896,2.23509 -0.99636,1.02322 -2.215472,1.59863 -3.386988,1.59863 -1.056535,0 -0.91746,0.62641 0.166247,0.74879 2.121416,0.23957 2.735659,2.93508 0.886714,3.8912 -1.13289,0.58584 -5.244541,-0.21024 -3.976845,-0.21024 z m 2.143685,-8.92767 c -0.522243,-0.3375 -2.304956,-0.3375 -2.513542,0 -0.101944,0.16495 0.415253,0.26306 1.373448,0.26054 1.089954,-0.003 1.421541,-0.0786 1.140094,-0.26054 z m 92.80878,-8.00754 c -0.798608,-0.40821 -1.847418,-2.20053 -1.862664,-3.18313 -0.01452,-0.93596 1.053138,-2.03849 1.974012,-2.03849 2.59657,0 4.029498,3.02155 2.268199,4.78285 -0.841014,0.84101 -1.39335,0.94286 -2.379547,0.43877 z M -55.22077,323.41926 c -0.291042,-0.0676 -0.787223,-0.17758 -1.102626,-0.24443 -0.747675,-0.15847 -1.675499,-1.67793 -1.675499,-2.74389 0,-1.23143 0.897732,-2.80407 1.81837,-3.18541 1.008178,-0.4176 2.120454,0.0593 2.633169,1.12907 0.427088,0.89109 0.573244,0.87242 5.060776,-0.64645 5.542444,-1.87593 6.323051,-2.57801 5.439295,-4.89209 -0.651038,-1.70472 -1.532339,-2.62625 -2.869687,-3.00068 -1.354241,-0.37917 -1.51945,-0.3847 -8.64234,-0.28925 -5.675568,0.0761 -7.060823,-0.0939 -9.128125,-1.12008 -1.858917,-0.92271 -2.927236,-1.93656 -3.279494,-3.11229 -0.301678,-1.00691 -0.272889,-1.21354 0.345038,-2.47654 2.295812,-4.69247 9.075381,-8.99899 14.085027,-8.94709 3.511806,0.0364 5.298753,1.41313 4.451028,3.42927 -0.527103,1.25361 -1.225643,1.51048 -3.053031,1.12269 -1.928226,-0.4092 -3.060271,-0.20378 -5.404818,0.98074 -2.307823,1.16597 -4.123944,2.48102 -5.156751,3.734 l -0.79461,0.964 0.59443,0.30268 c 1.479267,0.75323 3.366469,0.91706 9.722556,0.84401 6.231157,-0.0716 6.54028,-0.051 7.979099,0.53064 2.157885,0.8724 3.150934,1.61978 4.129763,3.10811 1.072777,1.63118 1.387863,2.64618 1.571939,5.06373 0.121763,1.59919 0.05387,2.08504 -0.431468,3.08761 -0.774902,1.60074 -1.906369,2.40016 -5.364421,3.79015 -4.557333,1.83186 -9.303358,2.9487 -10.92762,2.5715 z m 158.75,-2.32491 c -3.558062,-1.56814 -4.540058,-6.74415 -2.11327,-11.13883 1.73867,-3.14856 3.65751,-4.03463 5.94866,-2.74693 1.88014,1.0567 2.66733,3.66344 1.69241,5.60434 -0.23394,0.46572 -0.9736,1.41231 -1.6437,2.10353 -1.17488,1.2119 -1.19403,1.25677 -0.5364,1.25677 0.37509,0 0.99569,0.24677 1.37912,0.54837 0.55878,0.43954 0.69714,0.77272 0.69714,1.67879 0,1.29648 -0.35009,1.71151 -2.12143,2.51498 -1.374,0.62324 -2.19373,0.66767 -3.30253,0.17898 z m -33.103958,-0.9255 c -1.166383,-0.29734 -3.044561,-1.23946 -4.336108,-2.17506 -1.445625,-1.0472 -2.227656,-2.74778 -1.970855,-4.28575 0.205349,-1.22981 1.302495,-3.53264 2.348058,-4.9284 0.37546,-0.50121 0.682654,-1.19174 0.682654,-1.53449 0,-0.82044 0.574817,-1.89468 1.452019,-2.71359 1.06837,-0.99736 3.127476,-0.89946 5.548036,0.26378 4.8802,2.34528 6.965475,6.8846 4.972341,10.82403 -0.857175,1.6942 -2.669961,3.59365 -3.933574,4.12162 -1.134227,0.47391 -3.683538,0.70294 -4.762571,0.42786 z m 3.884315,-5.30429 c 0.546267,-0.57424 1.071848,-1.4021 1.167956,-1.83968 0.256358,-1.16719 -0.493811,-2.51545 -1.928243,-3.46558 l -1.219216,-0.80757 -0.35166,0.67117 c -0.193413,0.36914 -0.873215,1.19272 -1.510671,1.83017 -1.290188,1.29019 -2.109382,2.67027 -1.841915,3.10304 0.311672,0.5043 2.86182,1.54729 3.789671,1.54995 0.706561,0.002 1.115084,-0.22261 1.894078,-1.0415 z m 40.340193,4.95458 c -0.92778,-0.79804 -1.00622,-2.36784 -0.16066,-3.21523 0.4727,-0.47372 0.96977,-0.58409 3.13531,-0.69619 l 2.57355,-0.13323 -1.44471,-1.32198 c -4.16876,-3.81464 -5.03826,-4.74565 -5.45762,-5.84372 -0.54612,-1.43001 -0.34617,-2.3056 0.78479,-3.43656 1.05562,-1.05562 3.45335,-1.82437 5.03046,-1.61283 1.96234,0.2632 2.94427,2.27358 1.74122,3.5649 -0.49944,0.53609 -0.92212,0.70755 -2.22749,0.90359 -0.39363,0.0591 -0.048,0.4513 1.46656,1.66395 2.4433,1.95629 3.81038,3.45294 4.36375,4.77734 0.53001,1.26848 0.53069,3.40873 0.001,4.2166 -0.58039,0.88579 -2.48809,1.38865 -6.00974,1.58412 -2.96653,0.16466 -3.09969,0.14885 -3.79677,-0.45076 z m -144.910248,-0.6038 c -0.419399,-0.23149 -0.874112,-0.84511 -1.124134,-1.51698 -0.593969,-1.59615 -2.268778,-8.4 -2.270876,-9.22535 -0.0017,-0.66551 -0.04575,-0.68454 -1.304928,-0.56355 -1.137437,0.10929 -1.389813,0.0386 -1.984375,-0.55598 -1.28198,-1.28198 -0.700717,-3.08618 1.175371,-3.64827 1.245066,-0.37303 1.281411,-0.0195 -0.57987,-5.63973 -0.79634,-2.40458 -1.249606,-4.18918 -1.157352,-4.55674 0.37013,-1.47472 2.257163,-2.15399 3.522241,-1.26789 0.532834,0.37321 1.27364,2.42317 3.485426,9.64488 0.149871,0.48934 0.367731,0.64814 0.837265,0.61028 0.349074,-0.0282 2.042344,-0.17653 3.762822,-0.32972 3.250847,-0.28946 3.87993,-0.18628 4.602506,0.75485 0.553469,0.72087 0.401522,1.98875 -0.31952,2.66613 -0.554675,0.52109 -1.066384,0.65166 -3.241146,0.82703 -1.420365,0.11453 -2.880139,0.21584 -3.243941,0.22514 -1.305678,0.0334 -1.427314,0.29607 -1.062678,2.29522 0.182037,0.99804 0.690692,3.1243 1.130345,4.72503 1.13004,4.11435 1.134934,4.17243 0.419157,4.97469 -0.77786,0.87185 -1.737579,1.08254 -2.646313,0.58096 z m 15.376157,-0.22598 c -1.183959,-0.4234 -3.373658,-1.89308 -4.159184,-2.79154 -2.581687,-2.95287 -2.880589,-7.7511 -0.645511,-10.36228 1.849146,-2.16032 3.841209,-2.38747 7.080148,-0.80735 2.328357,1.13588 3.4414969,2.14377 3.8181671,3.45715 0.6028209,2.10191 -1.6758351,4.3443 -4.9822031,4.90291 -1.536095,0.25952 -1.593917,0.59615 -0.207726,1.20932 0.871349,0.38544 1.481991,0.48256 2.25595,0.3588 1.581492,-0.25289 2.3612378,0.0402 2.8535337,1.07254 0.5775135,1.21106 0.1045969,2.43373 -1.1429657,2.95499 -1.079382,0.451 -3.616425,0.45384 -4.870209,0.005 z m 0.184671,-10.04386 c 0.07164,-0.0716 -0.250324,-0.21383 -0.715471,-0.316 -0.784129,-0.17222 -1.290426,0.10051 -1.304733,0.70285 -0.0043,0.18045 1.798031,-0.16467 2.020204,-0.38685 z m 102.380645,9.52325 c -1.58291,-1.67837 -4.127817,-7.0328 -4.127817,-8.68483 0,-0.74424 0.168046,-1.1128 0.69714,-1.52899 0.789627,-0.62112 1.365306,-0.68228 2.321444,-0.24663 0.634028,0.28888 1.010979,0.9274 2.446367,4.14392 0.34434,0.77162 0.728747,1.33949 0.854238,1.26193 0.125491,-0.0776 0.675067,-1.18513 1.22128,-2.46128 1.913007,-4.46945 2.430342,-5.32104 3.505367,-5.77022 1.0706,-0.44732 2.038947,-0.33003 2.778643,0.33658 0.655113,0.59038 0.61358,2.30136 -0.07252,2.98746 -0.294547,0.29454 -0.779657,1.15487 -1.078022,1.91183 -0.828115,2.10094 -3.342839,6.85872 -4.039763,7.6431 -0.847664,0.95404 -1.545198,1.28661 -2.698561,1.28661 -0.765493,0 -1.158798,-0.19134 -1.807798,-0.87948 z M 3.507544,318.03814 c -0.8056613,-0.32657 -1.1190519,-0.80031 -2.76983307,-4.18707 -1.63425021,-3.35285 -3.37819213,-5.61534 -4.32834583,-5.61534 -0.8133912,0 -1.625349,-0.63289 -2.0131822,-1.5692 -0.284441,-0.68671 -0.260314,-0.91617 0.1749803,-1.66419 1.506456,-2.58872 5.84367611,-0.77193 8.2841082,3.47008 0.5093229,0.88531 0.9986814,1.61095 1.0874632,1.61253 0.088782,0.002 0.2273367,-0.63579 0.3078997,-1.41637 0.2103225,-2.03783 1.1351309,-4.02257 2.1733326,-4.66422 1.4057655,-0.86881 2.5606423,-0.61846 3.2672534,0.70825 0.4391067,0.82445 0.3817107,1.5056 -0.187962,2.23067 -0.5159612,0.6567 -0.8603345,2.0735 -1.3752737,5.65808 -0.3737561,2.60177 -1.1527487,4.75887 -1.9101556,5.28938 -0.6151569,0.43087 -1.8458235,0.4978 -2.710285,0.1474 z m 13.952574,-1.10564 c -2.573543,-1.27387 -4.286097,-3.86786 -4.286097,-6.49211 0,-2.48272 1.672183,-5.32968 3.552127,-6.04764 1.042914,-0.39829 1.208127,-0.39839 2.158443,-10e-4 1.898828,0.79339 3.02068,2.27026 3.02068,3.9766 0,1.19079 -0.480976,2.12401 -1.697217,3.29305 -0.521739,0.50149 -0.948616,1.01065 -0.948616,1.13146 0,0.12081 0.709965,0.19162 1.577699,0.15735 1.347373,-0.0532 1.675695,0.0298 2.248958,0.56831 0.801811,0.75326 0.895204,2.05541 0.208239,2.90337 -0.914146,1.12839 -4.03471,1.40168 -5.834216,0.51094 z m 39.319282,0.19097 c -1.369619,-0.68283 -2.859545,-4.21162 -2.859545,-6.77265 0,-0.81748 -0.362265,-3.62209 -0.805033,-6.23248 -2.077944,-12.25073 -2.000991,-14.16096 0.587157,-14.57525 0.810447,-0.12972 1.086357,-0.0421 1.653646,0.52519 0.616517,0.61652 0.680896,0.87847 0.680896,2.77044 0,1.16054 0.405144,4.489 0.911266,7.48651 0.501195,2.96833 1.037696,6.78567 1.192224,8.48299 0.209504,2.30118 0.44812,3.44511 0.938233,4.49792 0.796191,1.71029 0.823054,2.32696 0.139231,3.1963 -0.616365,0.78358 -1.606268,1.03573 -2.438075,0.62103 z M 45.58548,272.64649 c -6.637852,-0.94507 -8.9671,-1.17758 -11.90625,-1.1885 -5.012451,-0.0186 -7.737353,-0.70567 -8.477834,-2.1376 l -0.384732,-0.74399 -1.412614,0.48601 c -0.776938,0.2673 -1.778032,0.67497 -2.224654,0.90593 -1.55477,0.804 -5.515178,1.8096 -9.063708,2.30138 -3.2442623,0.44962 -4.1421636,0.46764 -9.7895833,0.19654 -4.41194,-0.2118 -8.2540002,-0.22108 -13.2291667,-0.032 -3.856302,0.1466 -10.40474,0.24329 -14.552083,0.21488 -7.379811,-0.0505 -7.581507,-0.0663 -9.457576,-0.73719 -5.65286,-2.02156 -8.333165,-4.79784 -9.586709,-9.93 -0.566463,-2.31916 -1.020146,-6.04495 -0.91943,-7.55066 0.204608,-3.05888 1.112924,-6.66824 2.242261,-8.91001 0.733187,-1.45541 4.067564,-5.81267 4.44812,-5.81267 0.109649,0 0.877133,-0.57308 1.705521,-1.27351 2.639889,-2.23211 7.606143,-4.60996 11.170938,-5.34866 2.702971,-0.56012 7.23137,-1.02819 10.05469,-1.0393 3.773476,-0.0148 7.1854121,0.64615 11.9057264,2.3065 2.0372917,0.71661 4.02980482,1.38302 4.42780699,1.48091 l 0.72364031,0.17798 -0.1666022,-4.43581 c -0.13641206,-3.632 -0.084372,-4.84083 0.2871794,-6.67084 0.2495799,-1.22926 0.5550051,-2.42416 0.6787226,-2.65533 0.1822327,-0.3405 -0.085038,-0.53863 -1.40769472,-1.04352 -2.92070338,-1.1149 -8.45304818,-3.86792 -11.05528778,-5.50137 -2.401406,-1.50739 -3.270234,-2.15356 -7.337631,-5.45724 -2.457471,-1.99604 -6.176267,-6.24426 -8.333182,-9.51953 l -1.886138,-2.86409 -0.92999,1.02669 c -0.511495,0.56468 -1.857302,2.15495 -2.990684,3.53394 -2.619683,3.18737 -4.1821,4.52612 -6.650223,5.69823 l -1.972517,0.93674 -3.664251,-0.0269 c -7.960438,-0.0585 -10.677475,-0.85621 -13.730351,-4.03118 -2.888932,-3.00446 -4.333423,-6.60243 -4.333423,-10.79377 0,-5.47654 0.698921,-6.83575 6.746875,-13.12076 7.970457,-8.28288 17.26374,-15.83088 22.817419,-18.5323 l 2.120047,-1.03123 0.588807,-1.98437 c 1.683169,-5.67256 5.099266,-12.8667 8.596076,-18.10295 2.615781,-3.91696 3.178455,-4.66114 6.11747,-8.0908 8.5753358,-10.00693 21.0668538,-18.46361 31.06539,-21.03107 3.248205,-0.83409 9.760395,-1.24679 10.809977,-0.68507 0.533798,0.28568 5.044296,1.07864 6.135502,1.07864 0.420868,0 0.425464,-0.0846 0.06106,-1.12448 -0.580414,-1.65624 -0.28199,-4.32309 1.088063,-9.72344 2.043501,-8.054883 3.061962,-11.421151 7.764794,-25.664582 2.21952,-6.722246 4.313754,-11.314256 7.179623,-15.742709 4.464438,-6.898623 15.22453,-17.482272 20.482622,-20.146749 3.399209,-1.722509 5.47369,-2.278069 10.772107,-2.884841 9.606665,-1.100149 16.08421,0.15588 21.335757,4.137115 2.42316,1.837009 9.59536,8.446063 12.7742,11.771192 1.35362,1.41591 2.88015,3.229424 3.3923,4.030031 3.34376,5.227152 8.39095,20.724484 9.71055,29.816169 0.66422,4.576317 1.27009,12.349236 1.13426,14.552084 -0.42283,6.85786 -5.71172,13.39733 -12.36373,15.2872 -2.77119,0.78731 -7.08143,1.10618 -10.06489,0.74459 -4.90133,-0.59403 -12.477543,-2.42614 -16.490364,-3.98777 -3.275697,-1.27476 -5.430218,-2.63138 -8.979389,-5.65399 -0.844624,-0.71931 -1.628258,-1.20117 -1.741409,-1.07081 -0.11315,0.13037 -0.781549,1.01094 -1.485331,1.95682 -0.703782,0.94589 -1.597961,2.13651 -1.987065,2.64583 -2.116462,2.77038 -3.909963,5.18012 -4.495306,6.03989 -1.447141,2.12561 -3.122788,4.25713 -5.131322,6.52735 -1.158952,1.30995 -2.277759,2.58439 -2.486239,2.83209 -0.340968,0.40512 -0.165268,0.68426 1.74865,2.77813 2.732211,2.9891 3.375563,3.83043 6.838007,8.94234 3.385489,4.99828 5.11246,8.05194 6.518655,11.52636 0.348071,0.86001 0.460684,0.93381 1.279191,0.83825 0.703397,-0.0821 1.240101,0.11908 2.481434,0.93022 2.553538,1.6686 5.208667,3.35788 6.346416,4.03781 3.198039,1.91117 7.884735,6.3729 11.641672,11.08287 3.99578,5.0094 5.39925,7.39525 8.23352,13.99666 2.76904,6.44947 3.19672,8.48174 2.2127,10.51444 -0.83606,1.72708 -4.41336,5.16808 -6.51897,6.27059 -3.15495,1.65196 -7.336935,2.45071 -12.831031,2.45071 H 87.838345 L 85.0618,199.01429 c -2.124988,-1.07433 -3.202093,-1.82309 -4.589974,-3.19079 -0.997386,-0.98288 -2.048864,-2.22644 -2.336618,-2.76345 -0.287753,-0.53702 -0.602247,-0.9764 -0.698876,-0.9764 -0.09663,0 -0.374388,0.50601 -0.617246,1.12448 -0.242857,0.61846 -1.228882,2.54465 -2.191167,4.28042 -3.807751,6.86842 -8.520995,12.52608 -13.523007,16.23267 -2.01088,1.4901 -7.583398,4.74692 -9.124994,5.33303 -0.777742,0.2957 -0.910505,1.0003 -1.249534,6.63148 -0.265566,4.41099 -0.609012,7.52558 -0.911738,8.26823 -0.255248,0.62618 0.01158,0.58414 1.379072,-0.21726 1.267852,-0.74301 6.549232,-2.64147 8.344758,-2.99963 0.61834,-0.12334 2.791129,-0.656 4.82842,-1.18368 7.84975,-2.03318 11.174633,-2.33214 14.977528,-1.34671 4.18385,1.08414 7.723613,3.49176 12.765234,8.68245 2.722314,2.80281 3.155941,3.45472 4.279852,6.43433 1.458004,3.86533 1.830022,13.95544 0.783699,21.25602 -1.140623,7.95855 -2.539033,9.13508 -10.052146,8.45726 -6.685221,-0.60312 -17.919625,-0.72506 -24.60625,-0.26706 -8.710201,0.59659 -12.048426,0.57231 -16.933333,-0.12319 z m 18.653125,-5.69987 c 2.550911,-0.34827 16.791571,-0.15807 22.723061,0.3035 1.947423,0.15154 3.636214,0.17819 3.752868,0.0592 0.116654,-0.11898 0.42768,-1.34741 0.691168,-2.72986 0.390376,-2.04819 0.476183,-3.81162 0.463475,-9.525 -0.0219,-9.84673 -0.195148,-10.42228 -4.449037,-14.78052 -3.955074,-4.05209 -6.337374,-5.66911 -9.606637,-6.52064 -2.019882,-0.52611 -3.208245,-0.49828 -6.468703,0.1515 -7.963998,1.58716 -14.873497,3.59205 -18.086852,5.24816 -2.749253,1.41692 -4.932796,2.02953 -6.311793,1.77083 -1.337862,-0.25098 -2.484287,-1.30912 -2.842443,-2.62354 -0.357812,-1.31316 -0.176339,-4.79865 0.388155,-7.45516 0.384977,-1.81171 0.896685,-8.86355 0.643173,-8.86355 -0.0705,0 -0.831426,0.24463 -1.690952,0.54361 -3.129702,1.08866 -8.006737,2.12218 -12.079962,2.55994 -2.99241,0.3216 -4.167188,0.54398 -4.167188,0.78882 0,0.18753 0.267891,0.34141 0.595313,0.34196 0.742209,0.001 2.199746,0.87018 2.526427,1.5062 0.134803,0.26245 0.324232,1.31062 0.420955,2.32927 0.807288,8.50207 0.983639,11.06415 0.987799,14.35099 0.0026,2.07221 -0.05871,3.97721 -0.136298,4.23333 -0.363826,1.20104 -0.955397,7.56544 -1.11923,12.0412 l -0.181593,4.96093 2.620501,0.003 c 2.673629,0.003 7.749354,0.49271 12.270579,1.18484 1.386415,0.21224 2.937474,0.43797 3.446797,0.50162 1.708217,0.21348 13.336379,-0.0697 15.610417,-0.3802 z m -76.332292,-0.27136 c 3.9290626,-0.16799 8.4534376,-0.2347 10.0541667,-0.14825 9.4828126,0.51214 10.3004806,0.51469 13.7667133,0.0428 3.222945,-0.43873 4.552545,-0.81675 8.458287,-2.40476 0.873125,-0.355 1.736328,-0.64511 1.918229,-0.64469 0.197924,4.5e-4 0.328714,-0.34454 0.32571,-0.85914 -0.01815,-3.10957 -0.830494,-22.5798 -1.045949,-25.06927 -0.325562,-3.76168 -0.338852,-9.57924 -0.02497,-10.93154 0.16614,-0.7158 0.14505,-1.03434 -0.07246,-1.09443 -0.168744,-0.0466 -1.850558,-0.22483 -3.737364,-0.39603 -2.903693,-0.26347 -5.257435,-0.64903 -9.1621326,-1.50085 -0.6499958,-0.1418 -0.7182767,-0.0507 -1.2861558,1.71538 -0.5395026,1.67785 -0.578655,2.1386 -0.3899437,4.5889 0.3155222,4.09685 0.1910351,9.03769 -0.2545808,10.1042 -0.2484905,0.59472 -0.804565,1.15374 -1.6272345,1.63586 -1.21655,0.71294 -1.2927355,0.72355 -2.8683207,0.39943 -0.8902169,-0.18313 -3.1663887,-0.87187 -5.0581595,-1.53053 -3.2286492,-1.12412 -5.7324683,-1.89046 -8.2020834,-2.5104 -2.723074,-0.68356 -10.718182,-0.14818 -14.552083,0.97445 -2.917934,0.85442 -3.924038,1.31297 -6.217709,2.83381 -2.682225,1.77848 -4.967601,4.17933 -5.99231,6.29508 -0.934785,1.93009 -1.680606,4.91931 -1.680606,6.73581 0,1.84126 0.745466,6.07227 1.296291,7.35729 0.634379,1.47995 2.862183,3.47951 4.46627,4.0087 2.700829,0.89101 8.073138,0.98874 21.886397,0.39815 z m 41.407292,-46.81775 c 3.68936,-0.32427 7.864664,-1.10404 10.715625,-2.0012 16.264482,-5.11825 24.51186,-11.93465 31.503265,-26.03725 2.260717,-4.56016 3.709432,-9.18701 4.929212,-15.7427 0.432401,-2.32394 0.414044,-10.73174 -0.0286,-13.09688 -1.465513,-7.83063 -3.814384,-13.20342 -9.3693,-21.43125 -3.42809,-5.07762 -7.15212,-9.25955 -11.424166,-12.82885 -3.836866,-3.20571 -5.209668,-4.1204 -8.965239,-5.97352 -4.695157,-2.31673 -10.205172,-3.83935 -17.625386,-4.87052 -1.527968,-0.21233 -3.275812,-0.4917 -3.884096,-0.6208 -0.608285,-0.12911 -2.096566,-0.20333 -3.307292,-0.16494 -6.525774,0.2069 -13.9599526,3.43083 -22.65121079,9.823 -5.81477911,4.2766 -13.57879221,12.80867 -17.34176921,19.0573 -1.496864,2.48563 -4.557689,8.6145 -5.159249,10.33067 -2.344369,6.68818 -2.37332,6.78991 -3.557272,12.49974 -0.769796,3.71249 -0.835708,12.37441 -0.120989,15.89989 1.83674,9.06003 6.384236,16.29094 14.482295,23.0281 3.4909993,2.90433 9.5747806,6.45318 14.1730559,8.26758 4.4173948,1.74301 12.1012181,3.53889 16.9154861,3.9535 2.388541,0.20571 7.86418,0.15876 10.715625,-0.0919 z m 8.863541,-23.96957 c -0.873125,-0.0528 -3.96875,-0.27948 -6.879166,-0.50383 -6.358297,-0.49012 -8.474405,-0.5255 -15.236089,-0.25472 -6.2873164,0.25178 -9.5171722,-0.13294 -13.6752748,-1.6289 -2.19114369,-0.78831 -2.59734783,-3.42607 -0.7571488,-4.91669 0.7889921,-0.63911 2.0540784,-0.58077 5.3695325,0.24761 2.6842665,0.67068 3.1470211,0.70876 7.2333551,0.59532 6.677952,-0.1854 14.129077,-0.0664 17.065625,0.27253 1.455208,0.16796 5.205677,0.35938 8.334375,0.42538 6.082134,0.1283 6.663706,0.24572 7.298614,1.47349 0.642684,1.24282 0.475625,2.2892 -0.525281,3.2901 -0.746292,0.74629 -1.095706,0.8999 -2.050521,0.90147 -0.633015,10e-4 -1.924844,0.0451 -2.870729,0.098 -0.945885,0.0529 -2.434167,0.053 -3.307292,2.2e-4 z M 4.7365355,162.94863 c -3.3633414,-0.3901 -5.20865697,-1.95086 -5.8213058,-4.92363 -0.5169892,-2.5086 0.14064223,-5.11065 2.00357142,-7.92753 1.26731858,-1.91628 2.67979688,-2.5747 5.54959978,-2.58692 1.9843269,-0.008 2.2503824,0.0556 3.3072917,0.79662 1.0582324,0.74192 2.2833904,2.39973 3.6808854,4.98076 0.511189,0.94411 0.532348,1.18857 0.270979,3.13069 -0.467651,3.47492 -1.55179,5.38179 -3.596244,6.32537 -1.1315101,0.52223 -2.2808331,0.56582 -5.3947775,0.20464 z M 38.44173,160.02918 c -1.58739,-0.58406 -3.139861,-2.54948 -3.441883,-4.35738 -0.09433,-0.56468 -0.350463,-1.97919 -0.569178,-3.14336 -0.370974,-1.9746 -0.365141,-2.20298 0.08691,-3.40261 1.202275,-3.19058 5.87739,-4.38856 10.80332,-2.76831 2.364302,0.77768 3.682204,1.64901 4.622863,3.05641 0.760861,1.13839 0.83423,1.42022 0.746772,2.86848 -0.06957,1.15203 -0.262593,1.81659 -0.68279,2.35079 -0.322191,0.4096 -0.585803,1.06255 -0.585803,1.451 0,1.14927 -1.376344,3.04931 -2.547465,3.51677 -1.331579,0.5315 -7.324878,0.83584 -8.432743,0.42821 z m -78.284914,42.30744 c 1.678812,-1.24183 3.829298,-3.47859 4.700299,-4.88887 0.379832,-0.615 1.581797,-2.04175 2.671035,-3.17054 1.963922,-2.03523 1.978096,-2.0601 1.700311,-2.98285 -0.437997,-1.45493 -0.721614,-2.58654 -1.32738,-5.29613 -0.746873,-3.34076 -0.972445,-10.93501 -0.430274,-14.48594 0.261052,-1.70974 0.286925,-2.44589 0.08584,-2.4424 -0.647653,0.0113 -6.002403,3.84141 -8.941716,6.39586 -7.982135,6.93699 -14.503649,13.6611 -15.006769,15.47296 -0.414925,1.49425 -0.344364,4.6493 0.136349,6.09663 0.558412,1.68126 2.164588,4.10679 3.151382,4.75899 1.763538,1.16557 4.700083,1.66658 9.159879,1.56278 2.769912,-0.0645 2.828242,-0.079 4.101041,-1.02049 z m 133.670027,-7.62348 c 5.338676,-0.58616 7.554887,-1.40817 9.872137,-3.66163 1.51168,-1.47007 1.61428,-1.64448 1.47441,-2.50643 -0.36862,-2.27154 -5.465641,-12.89357 -7.325106,-15.26529 -4.122315,-5.25794 -8.948128,-10.35608 -10.73223,-11.33786 -0.577128,-0.31758 -2.116882,-1.22017 -3.421676,-2.00575 -1.304793,-0.78557 -2.421404,-1.37926 -2.481358,-1.31931 -0.05995,0.0599 0.0212,0.6261 0.180338,1.2581 1.202934,4.77728 1.264114,12.656 0.143272,18.45034 -0.694349,3.58953 -1.812361,7.79984 -2.608972,9.8251 -0.146867,0.37339 -0.0022,0.41347 1.060031,0.29373 l 1.230104,-0.13865 2.159885,2.26442 c 2.168222,2.27315 3.661963,3.38159 5.437974,4.03528 1.201763,0.44232 1.840441,0.45608 5.011191,0.10795 z M 59.901861,122.1675 c 2.70432,-2.81653 5.344456,-6.14964 8.435379,-10.64948 0.699706,-1.01864 1.581802,-2.22811 1.960216,-2.68769 0.378413,-0.45959 1.451492,-1.9181 2.38462,-3.24115 0.933128,-1.32304 1.796331,-2.40553 1.918229,-2.40553 0.537267,0 0.120321,-0.69612 -1.16939,-1.95236 -2.337471,-2.276826 -4.235329,-4.646676 -6.38226,-7.969517 -1.128275,-1.74625 -2.424254,-3.682438 -2.879953,-4.302639 -1.104818,-1.503647 -1.09093,-2.728436 0.04381,-3.863173 0.9592,-0.9592 2.40623,-1.106044 3.545196,-0.359765 0.831052,0.544527 2.519966,2.773304 3.357434,4.430643 1.555885,3.079078 5.707616,7.890001 11.24057,13.025291 4.686263,4.34946 6.499224,5.47314 11.553977,7.1612 1.54873,0.51721 3.632324,1.11448 4.630208,1.32728 0.997885,0.2128 2.945423,0.65082 4.327873,0.97338 3.60971,0.84223 8.36143,0.86354 11.201,0.0502 2.51866,-0.7214 4.72925,-2.1619 6.25655,-4.07699 2.7998,-3.51068 3.00454,-5.14699 1.97947,-15.820666 -0.60405,-6.289796 -1.79916,-11.331807 -5.03659,-21.248712 -1.94594,-5.960822 -3.50982,-9.293043 -5.53986,-11.804044 -1.5538,-1.921915 -6.37924,-6.447232 -12.919309,-12.115769 -1.835637,-1.591018 -3.716644,-2.577158 -6.274382,-3.289415 -1.910778,-0.532098 -2.809679,-0.619604 -6.203333,-0.603886 -4.320268,0.02001 -8.694415,0.452261 -10.973456,1.084389 -1.36124,0.377561 -2.039196,0.70243 -4.636961,2.221982 -3.903572,2.28338 -10.214292,8.34512 -15.089854,14.494508 -3.686265,4.649366 -6.334877,9.912767 -8.607831,17.105739 -0.413857,1.309687 -1.832735,5.715 -3.153063,9.789583 -3.372378,10.407291 -5.56071,19.328591 -5.56071,22.669671 0,1.39099 -0.516509,2.68117 -1.234159,3.08279 -0.345535,0.19337 -0.160279,0.31006 0.85989,0.54161 3.873357,0.87914 8.325083,2.42364 11.489026,3.98603 2.21917,1.09585 7.885552,4.74117 8.476353,5.45304 0.174589,0.21037 0.396219,0.38248 0.492513,0.38248 0.09629,0 0.775253,-0.62507 1.5088,-1.38906 z m -111.81534,11.44199 c -2.318684,-0.39699 -3.346739,-0.79616 -5.168652,-2.00686 -2.349663,-1.56141 -3.026492,-2.20095 -4.735014,-4.47419 -4.333899,-5.76638 -6.3541,-10.97727 -7.180309,-18.52083 -0.563899,-5.14859 -0.796941,-16.490477 -0.406415,-19.779774 1.645285,-13.857793 3.535116,-19.86868 9.656099,-30.71265 3.423669,-6.065393 8.521821,-12.283486 12.559809,-15.318896 2.566969,-1.929625 6.110174,-3.618247 8.576184,-4.08724 2.301506,-0.437707 6.598456,-0.364974 8.575234,0.145151 1.593049,0.4111 4.706384,1.031493 8.153273,1.6247 3.982401,0.685368 5.45932,1.158185 7.202924,2.305925 1.666686,1.097108 3.081532,2.740389 4.664018,5.417051 1.6020377,2.709733 7.8445161,14.167973 7.8445161,14.398825 0,0.101729 0.7540973,1.44615 1.67577178,2.9876 2.69284822,4.503642 3.98778872,7.063342 7.77578672,15.370346 0.3649667,0.800364 1.0527405,2.288645 1.5283861,3.307291 3.8322923,8.207262 5.5549303,12.647291 7.9400713,20.465211 0.962214,3.1539 0.982128,3.29807 0.573852,4.15423 -0.806221,1.69067 -2.743433,2.29241 -4.234595,1.31536 -0.713363,-0.46741 -1.002971,-1.13807 -2.173272,-5.03272 -0.393548,-1.30968 -1.0091345,-3.21468 -1.3679706,-4.23333 C 8.7868062,98.778908 7.5700631,95.36354 6.9540898,93.658648 6.7174965,93.003804 5.9459098,91.217866 5.2394527,89.689898 4.5329957,88.161929 3.0981794,85.006773 2.050972,82.678439 -1.6935211,74.353031 -3.6601731,70.506669 -6.5394311,65.877398 -6.8562135,65.368075 -7.7761477,63.7012 -8.5837293,62.173231 c -0.8075816,-1.527969 -1.7629207,-3.313906 -2.1229757,-3.96875 -3.46631,-6.304294 -4.265034,-7.713717 -5.017852,-8.854459 -1.473842,-2.23331 -2.649814,-2.737309 -8.672255,-3.716759 -1.527969,-0.248499 -3.254375,-0.546374 -3.836458,-0.661943 -7.867357,-1.562023 -9.59525,-1.379256 -14.327637,1.515495 -2.223187,1.359901 -5.804334,4.741747 -7.785316,7.352041 -3.805205,5.014032 -8.557313,13.847335 -10.292766,19.132379 -1.134275,3.454251 -2.464994,9.105947 -2.912112,12.368025 -0.158437,1.155924 -0.360703,5.365251 -0.449481,9.354061 -0.27958,12.561679 0.662031,18.795299 3.763667,24.916079 1.52705,3.01349 5.011408,7.01532 6.868041,7.88804 2.732898,1.28462 6.586565,0.48584 12.96477,-2.68729 6.239272,-3.10401 9.554513,-5.86002 14.55703,-12.1015 3.879145,-4.83988 4.796342,-6.29409 7.426089,-11.77396 0.209503,-0.43656 0.722617,-1.627188 1.140254,-2.645834 2.500289,-6.098388 4.216739,-9.283922 6.557965,-12.170833 0.354044,-0.436563 1.1677942,-1.531578 1.8083349,-2.433367 0.9662707,-1.36037 1.331019,-1.670833 2.1416448,-1.822908 1.7433157,-0.327048 3.0829924,0.614038 3.4224717,2.404191 0.1708042,0.90069 -0.9032962,2.725266 -3.6602729,6.217709 -1.7576827,2.226571 -2.9965385,4.579878 -5.5970135,10.631972 l -1.783042,4.14968 0.988979,1.80345 c 3.092937,5.64009 4.8173083,8.37535 6.7810075,10.75626 0.929276,1.12672 1.273577,1.77083 1.2728555,2.38125 -0.0015,1.26891 -0.8653741,2.47868 -1.9921407,2.78979 -1.1960962,0.33026 -2.0572854,0.0365 -3.2524483,-1.10936 -0.86887,-0.83304 -3.221089,-3.95792 -3.221089,-4.27916 0,-0.20466 -2.520488,-4.19 -3.386532,-5.35471 l -0.634046,-0.8527 -2.269382,2.96937 c -4.927127,6.44689 -9.07871,10.41135 -14.017691,13.3859 -3.232915,1.94706 -9.190913,4.6919 -11.706932,5.39336 -1.856913,0.51771 -4.55816,0.72223 -6.085417,0.46074 z"
         id="path4"
         sodipodi:nodetypes="sssssssssssssssssssssscssssscsssssssssscsssssssssssssssssssssssssssssssssssssssssssssssssssssssssssssssssssssssssssssssssssssssssssssssssssssssssssssscscsssssssscsccsssssssssssssssssssssscsscsssssssssssssssssssssssssssscssssscsscsssssssscsccsssssssssssssssssssscsssssssssccssssssssssssssssssssssssscssssssscsscssssssccsssssssssssssscsssssscssssssssscssssssscssscssssscsssssssssssssssssssssssssssssssssssssscsssssssssssssssssssscssssssssssssssscssssscsssccssssssssssssssssssssssssssssssssssssssssssssssssssssssssssssssssscssssssssssssssssssssssscsssssssssssssssssscsssssssssssssssssssssssssssssssssssssssssssssssssssssssssssssssssssssssssssssssssssssscssssssscssss" /></g></g></svg>
